<svg width="72" height="54" viewBox="0 0 72 54" fill="none" xmlns="http://www.w3.org/2000/svg">
<path d="M70.3107 15.7497H61.8914L59.5514 9.89972C57.1468 3.88519 51.4078 -0.000274658 44.9292 -0.000274658H27.0698C20.5926 -0.000274658 14.8523 3.88519 12.4462 9.89972L10.1062 15.7497H1.6884C0.590114 15.7497 -0.215668 16.7819 0.0515199 17.8464L0.895271 21.2214C1.0823 21.9724 1.7573 22.4997 2.53215 22.4997H5.3545C3.4659 24.1493 2.24949 26.5469 2.24949 29.2497V35.9997C2.24949 38.2666 3.11574 40.3127 4.49949 41.8961V49.4997C4.49949 51.9846 6.51465 53.9997 8.9995 53.9997H13.4995C15.9844 53.9997 17.9995 51.9846 17.9995 49.4997V44.9997H53.9996V49.4997C53.9996 51.9846 56.0147 53.9997 58.4996 53.9997H62.9996C65.4844 53.9997 67.4996 51.9846 67.4996 49.4997V41.8961C68.8833 40.3141 69.7496 38.268 69.7496 35.9997V29.2497C69.7496 26.5469 68.5332 24.1493 66.646 22.4997H69.4683C70.2432 22.4997 70.9182 21.9724 71.1052 21.2214L71.949 17.8464C72.2147 16.7819 71.409 15.7497 70.3107 15.7497ZM20.8022 13.2424C21.8273 10.6802 24.3094 8.99973 27.0698 8.99973H44.9292C47.6897 8.99973 50.1717 10.6802 51.1969 13.2424L53.9996 20.2497H17.9995L20.8022 13.2424ZM13.4995 35.9716C10.7995 35.9716 8.9995 34.1772 8.9995 31.4857C8.9995 28.7941 10.7995 26.9997 13.4995 26.9997C16.1995 26.9997 20.2495 31.0371 20.2495 33.7286C20.2495 36.4202 16.1995 35.9716 13.4995 35.9716ZM58.4996 35.9716C55.7996 35.9716 51.7496 36.4202 51.7496 33.7286C51.7496 31.0371 55.7996 26.9997 58.4996 26.9997C61.1996 26.9997 62.9996 28.7941 62.9996 31.4857C62.9996 34.1772 61.1996 35.9716 58.4996 35.9716Z" fill="#433F56"/>
</svg>
